<svg width="631" height="301" fill="none" xmlns="http://www.w3.org/2000/svg"><path fill-rule="evenodd" clip-rule="evenodd" d="M418.613 239.733C400.546 248.859 380.124 254 358.5 254 284.77 254 225 194.23 225 120.5c0-53.11 31.014-98.977 75.919-120.478C220.648 1.4 156 66.9 156 147.5c0 81.462 66.038 147.5 147.5 147.5 46.559 0 88.08-21.572 115.113-55.267z" fill="#EBE1AB"/><rect y="141" width="249" height="60" rx="30" fill="#fff"/><rect x="124" y="241" width="249" height="60" rx="30" fill="#fff"/><rect x="382" y="105" width="249" height="60" rx="30" fill="#fff"/><rect x="411" y="171" width="103" height="25" rx="12.5" fill="#fff"/><rect x="411" y="171" width="103" height="25" rx="12.5" fill="#fff"/><rect x="60" y="229" width="64" height="25" rx="12.5" fill="#fff"/></svg>